<svg xmlns="http://www.w3.org/2000/svg" width="15.5" height="14.5" viewBox="0 0 15.5 14.5">
    <g data-name="그룹 25391">
        <g data-name="그룹 25378">
            <path data-name="패스 14990" d="M161.491 768.6v5.8a1.625 1.625 0 0 1-1.546 1.674 1.6 1.6 0 0 1-1.545-1.674" transform="translate(-153.566 -761.821)" style="stroke:#777;stroke-linejoin:round;stroke-width:.5px;fill:none"/>
            <path data-name="패스 14991" d="M149.329 760.183a3.436 3.436 0 0 1 2.914 1.631 3.382 3.382 0 0 1 2.914-1.631 3.436 3.436 0 0 1 2.914 1.631 3.382 3.382 0 0 1 2.914-1.631 2.134 2.134 0 0 1 1.714.472 7.554 7.554 0 0 0-15 0 3.313 3.313 0 0 1 1.714-.472z" transform="translate(-147.45 -753.75)" style="fill:#fff;stroke:#777;stroke-linejoin:round;stroke-width:.5px"/>
        </g>
    </g>
</svg>
