<svg xmlns="http://www.w3.org/2000/svg" width="19.94" height="18" viewBox="0 0 19.94 18">
    <defs>
        <clipPath id="i8l8hqz79a">
            <path data-name="사각형 12725" style="fill:#f23116" d="M0 0h19.94v18H0z"/>
        </clipPath>
    </defs>
    <g data-name="그룹 25503" transform="translate(-203 -359.912)">
        <ellipse data-name="타원 488" cx="8.108" cy="8" rx="8.108" ry="8" transform="translate(205 361)" style="opacity:.1;fill:#f23116"/>
        <path data-name="패스 25986" d="m9530.337 9286.52-1.244-1.93-.33-2.54 3.226 2.337z" transform="translate(-9325 -8921)" style="fill:#f8e5e7"/>
        <path data-name="패스 25987" d="m9530.413 9286.52 1.244-1.93.33-2.54-3.226 2.337z" transform="translate(-9309.783 -8921)" style="fill:#f8e5e7"/>
        <g data-name="그룹 25399" transform="translate(203 359.912)" style="clip-path:url(#i8l8hqz79a)">
            <path data-name="패스 25980" d="M14.023 19.375A8.778 8.778 0 1 1 22.8 10.6a8.788 8.788 0 0 1-8.778 8.778m0-16.093a7.315 7.315 0 1 0 7.316 7.315 7.323 7.323 0 0 0-7.315-7.315" transform="translate(-3.966 -1.375)" style="fill:#f23116"/>
            <path data-name="패스 25981" d="M34.44 45.183c-1.456 0-2.195-.656-2.195-1.951 0-1.021 0-3.414 2.195-3.414s2.195 2.392 2.195 3.414c0 1.295-.738 1.951-2.195 1.951m0-3.9c-.5 0-.731.292-.731 1.951 0 .4 0 .488.731.488s.732-.084.732-.488c0-1.659-.236-1.951-.732-1.951" transform="translate(-24.382 -30.11)" style="fill:#f23116"/>
            <path data-name="패스 25982" d="M22.144 27.759a.732.732 0 0 1-.393-1.349l1.042-.663-1.042-.663a.732.732 0 0 1 .785-1.235l2.012 1.28a.731.731 0 0 1 0 1.234l-2.012 1.28a.729.729 0 0 1-.392.114" transform="translate(-16.191 -17.948)" style="fill:#f23116"/>
            <path data-name="패스 25983" d="M49.153 27.759a.728.728 0 0 1-.392-.114l-2.012-1.28a.731.731 0 0 1 0-1.234l2.012-1.28a.732.732 0 0 1 .785 1.235l-1.042.663 1.042.663a.732.732 0 0 1-.393 1.349" transform="translate(-35.094 -17.948)" style="fill:#f23116"/>
            <path data-name="패스 25984" d="M2.119 6.42a.731.731 0 0 1-.573-.275A6.9 6.9 0 0 1 0 2a3.918 3.918 0 0 1 .015-.433l.034-.415A1.185 1.185 0 0 1 .917.047a1.185 1.185 0 0 1 1.341.517 5.634 5.634 0 0 0 1.8 1.8.732.732 0 1 1-.768 1.242 7.108 7.108 0 0 1-1.827-1.633 5.447 5.447 0 0 0 1.227 3.26.731.731 0 0 1-.571 1.187" style="fill:#f23116"/>
            <path data-name="패스 25985" d="M65.989 6.421a.732.732 0 0 1-.572-1.187 5.45 5.45 0 0 0 1.227-3.26 7.1 7.1 0 0 1-1.827 1.633.732.732 0 1 1-.771-1.244 5.631 5.631 0 0 0 1.8-1.8 1.2 1.2 0 0 1 2.208.593l.034.415a3.908 3.908 0 0 1 .019.429 6.9 6.9 0 0 1-1.545 4.14.731.731 0 0 1-.573.276" transform="translate(-48.168)" style="fill:#f23116"/>
        </g>
    </g>
</svg>
