<svg xmlns="http://www.w3.org/2000/svg" width="80" height="80" viewBox="0 0 80 80">
    <g data-name="그룹 25551">
        <g data-name="그룹 25531">
            <g data-name="그룹 25528">
                <g data-name="타원 493" style="stroke:#f23116;stroke-width:10px;fill:none">
                    <circle cx="40" cy="40" r="40" style="stroke:none"/>
                    <circle cx="40" cy="40" r="35" style="fill:none"/>
                </g>
            </g>
            <g data-name="그룹 25532">
                <path data-name="패스 26006" d="M37.232 52.01c-3.309 0-4.987-1.491-4.987-4.433 0-2.321 0-7.758 4.987-7.758s4.988 5.437 4.988 7.758c0 2.942-1.678 4.433-4.988 4.433m0-8.866c-1.126 0-1.662.663-1.662 4.433 0 .917 0 1.108 1.662 1.108s1.663-.191 1.663-1.108c0-3.77-.536-4.433-1.663-4.433" transform="translate(2.758 -.907)" style="fill:#f23116"/>
                <path data-name="패스 26007" d="M23.076 32.879a1.663 1.663 0 0 1-.894-3.065l2.367-1.506-2.367-1.508a1.663 1.663 0 0 1 1.785-2.8l4.572 2.909a1.662 1.662 0 0 1 0 2.8l-4.572 2.909a1.656 1.656 0 0 1-.891.26" transform="translate(7.588 6.264)" style="fill:#f23116"/>
                <path data-name="패스 26008" d="M52.644 32.879a1.655 1.655 0 0 1-.89-.26l-4.573-2.909a1.662 1.662 0 0 1 0-2.8L51.753 24a1.662 1.662 0 0 1 1.784 2.8l-2.367 1.508 2.367 1.506a1.663 1.663 0 0 1-.894 3.065" transform="translate(-3.558 6.264)" style="fill:#f23116"/>
            </g>
        </g>
    </g>
</svg>
