<svg xmlns="http://www.w3.org/2000/svg" width="18" height="18" viewBox="0 0 18 18">
    <defs>
        <clipPath id="7kyp8k36la">
            <path data-name="사각형 12723" style="fill:#2ea0ff" d="M0 0h18v18H0z"/>
        </clipPath>
    </defs>
    <g data-name="그룹 25495">
        <circle data-name="타원 486" cx="9" cy="9" r="9" style="opacity:.1;fill:#2ea0ff"/>
        <g data-name="그룹 25396">
            <g data-name="그룹 25395" style="clip-path:url(#7kyp8k36la)">
                <path data-name="패스 25972" d="M9 18a9 9 0 1 1 9-9 9.01 9.01 0 0 1-9 9M9 1.5A7.5 7.5 0 1 0 16.5 9 7.509 7.509 0 0 0 9 1.5" style="fill:#2ea0ff"/>
                <path data-name="패스 25973" d="M24.873 48.55a4.992 4.992 0 0 1-3.485-1.408.75.75 0 0 1 1.042-1.079 3.518 3.518 0 0 0 4.931-.043.75.75 0 0 1 1.06 1.06 4.985 4.985 0 0 1-3.548 1.47" transform="translate(-15.869 -34.35)" style="fill:#2ea0ff"/>
                <path data-name="패스 25974" d="M22 27a1 1 0 1 1-1-1 1 1 0 0 1 1 1" transform="translate(-15 -19.5)" style="fill:#2ea0ff"/>
                <path data-name="패스 25975" d="M46 27a1 1 0 1 1-1-1 1 1 0 0 1 1 1" transform="translate(-33 -19.5)" style="fill:#2ea0ff"/>
            </g>
        </g>
    </g>
</svg>
