<svg xmlns="http://www.w3.org/2000/svg" width="54" height="54" viewBox="0 0 54 54">
    <defs>
        <filter id="eyodb2asla" x="0" y="0" width="54" height="54" filterUnits="userSpaceOnUse">
            <feOffset/>
            <feGaussianBlur stdDeviation="4" result="blur"/>
            <feFlood flood-opacity=".031"/>
            <feComposite operator="in" in2="blur"/>
            <feComposite in="SourceGraphic"/>
        </filter>
    </defs>
    <g style="filter:url(#eyodb2asla)">
        <g data-name="패스 15000" style="fill:#c4c4c4">
            <path d="M15 29.5a14.405 14.405 0 0 1-10.253-4.247A14.405 14.405 0 0 1 .5 15c0-3.873 1.508-7.514 4.247-10.253A14.405 14.405 0 0 1 15 .5c3.873 0 7.514 1.508 10.253 4.247A14.405 14.405 0 0 1 29.5 15c0 3.873-1.508 7.514-4.247 10.253A14.405 14.405 0 0 1 15 29.5z" style="stroke:none" transform="translate(12 12)"/>
            <path d="M15 1c-3.74 0-7.255 1.456-9.9 4.1A13.908 13.908 0 0 0 1 15c0 3.74 1.456 7.255 4.1 9.9A13.908 13.908 0 0 0 15 29c3.74 0 7.255-1.456 9.9-4.1A13.908 13.908 0 0 0 29 15c0-3.74-1.456-7.255-4.1-9.9A13.908 13.908 0 0 0 15 1m0-1c8.284 0 15 6.716 15 15 0 8.284-6.716 15-15 15-8.284 0-15-6.716-15-15C0 6.716 6.716 0 15 0z" style="fill:#c4c4c4;stroke:none" transform="translate(12 12)"/>
        </g>
    </g>
    <g data-name="그룹 25420">
        <path data-name="선 203" transform="translate(24.219 20.438)" style="fill:none;stroke:#e9e9e9;stroke-linecap:round" d="m0 0 6.563 6.563"/>
        <path data-name="선 204" transform="rotate(90 1.89 28.892)" style="fill:none;stroke:#e9e9e9;stroke-linecap:round" d="m0 0 6.563 6.563"/>
    </g>
</svg>
