<svg xmlns="http://www.w3.org/2000/svg" width="22" height="22" viewBox="0 0 22 22">
    <g data-name="타원 441" style="stroke:#c4c4c4;stroke-width:.5px;fill:#f0f0f0">
        <circle cx="11" cy="11" r="11" style="stroke:none"/>
        <circle cx="11" cy="11" r="10.75" style="fill:none"/>
    </g>
    <path data-name="패스 2" d="M165.793 81.9a.776.776 0 0 1-.352-.085l-3.279-1.67a.521.521 0 0 0-.462 0l-3.279 1.67a.77.77 0 0 1-.8-.056.714.714 0 0 1-.3-.718l.627-3.541a.469.469 0 0 0-.142-.426l-2.652-2.507a.715.715 0 0 1-.191-.752.746.746 0 0 1 .611-.5l3.664-.517a.49.49 0 0 0 .371-.263l1.638-3.222a.753.753 0 0 1 .678-.411.75.75 0 0 1 .678.411l1.638 3.222a.5.5 0 0 0 .372.263l3.664.517a.742.742 0 0 1 .611.5.712.712 0 0 1-.191.752l-2.652 2.507a.469.469 0 0 0-.142.426l.627 3.541a.721.721 0 0 1-.3.718.766.766 0 0 1-.446.141zm-3.861-2.065a.776.776 0 0 1 .352.085l3.279 1.67a.5.5 0 0 0 .523-.038.467.467 0 0 0 .2-.47l-.627-3.541a.726.726 0 0 1 .216-.652l2.652-2.507a.462.462 0 0 0 .126-.492.477.477 0 0 0-.4-.326l-3.664-.517a.765.765 0 0 1-.572-.4l-1.638-3.222a.484.484 0 0 0-.446-.266.493.493 0 0 0-.446.266l-1.638 3.222a.754.754 0 0 1-.572.4l-3.664.517a.491.491 0 0 0-.4.326.457.457 0 0 0 .126.492l2.652 2.507a.715.715 0 0 1 .216.652l-.627 3.541a.467.467 0 0 0 .2.47.507.507 0 0 0 .523.038l3.279-1.67a.776.776 0 0 1 .35-.086z" transform="translate(-150.925 -64.965)" style="fill:#c4c4c4;stroke:#c4c4c4;stroke-width:.5px"/>
</svg>
