<svg xmlns="http://www.w3.org/2000/svg" width="122" height="72" viewBox="0 0 122 72">
    <defs>
        <linearGradient id="lkhu02r51b" x1=".51" y1="-.013" x2=".217" y2=".634" gradientUnits="objectBoundingBox">
            <stop offset="0" stop-color="#65bcff"/>
            <stop offset="1" stop-color="#1040f3"/>
        </linearGradient>
        <clipPath id="ufrzq6irva">
            <path data-name="패스 26096" d="M6.35 0A6.3 6.3 0 0 0 0 6.257v21.809a7.935 7.935 0 1 1 0 15.868v21.809A6.3 6.3 0 0 0 6.35 72h109.3a6.3 6.3 0 0 0 6.35-6.257V43.934a7.935 7.935 0 1 1 0-15.867V6.257A6.3 6.3 0 0 0 115.65 0z" style="fill:none"/>
        </clipPath>
    </defs>
    <g data-name="그룹 25733" style="clip-path:url(#ufrzq6irva)">
        <path data-name="패스 26097" d="m0 0 128.922-.09-.1 141.255-128.922.09z" transform="rotate(-55.05 29.547 56.554)" style="fill:url(#lkhu02r51b)"/>
    </g>
    <text transform="translate(61 46)" style="fill:#fff;font-size:24px;font-family:S-CoreDream-7ExtraBold,'S-Core Dream \37 ';font-weight:800"><tspan x="-34.56" y="0">도전권</tspan></text>
</svg>
