<svg xmlns="http://www.w3.org/2000/svg" width="20" height="20" viewBox="0 0 20 20">
    <defs>
        <clipPath id="93qwvgrsoa">
            <path data-name="사각형 12940" transform="translate(79 464)" style="fill:#fff;stroke:#707070" d="M0 0h20v20H0z"/>
        </clipPath>
    </defs>
    <g data-name="그룹 25746" transform="translate(-79 -464)" style="clip-path:url(#93qwvgrsoa)">
        <g data-name="패스 26101" style="fill:#fbb51b">
            <path d="M15.777 17.5H5.223c-.906 0-1.716-.47-2.168-1.255a2.474 2.474 0 0 1 .009-2.505L8.34 4.694a2.476 2.476 0 0 1 2.159-1.24c.9 0 1.706.464 2.16 1.24l5.276 9.046c.457.783.46 1.72.009 2.505a2.474 2.474 0 0 1-2.168 1.255z" style="stroke:none" transform="translate(78.5 463.523)"/>
            <path d="M10.5 3.954c-.72 0-1.365.37-1.728.992l-5.276 9.046a1.98 1.98 0 0 0-.007 2.004A1.98 1.98 0 0 0 5.223 17h10.554a1.98 1.98 0 0 0 1.734-1.004 1.98 1.98 0 0 0-.007-2.004l-5.276-9.046a1.98 1.98 0 0 0-1.728-.992m0-1c1.006 0 2.013.496 2.591 1.488l5.277 9.046c1.167 2-.276 4.512-2.591 4.512H5.223c-2.315 0-3.758-2.512-2.591-4.512l5.277-9.046A2.972 2.972 0 0 1 10.5 2.954z" style="fill:#444;stroke:none" transform="translate(78.5 463.523)"/>
        </g>
        <path data-name="패스 26102" d="M.529-9.9h-1.49l.131 5.6H.409zM-.2-1.877a.861.861 0 0 0 .844-.855.859.859 0 0 0-.844-.844.854.854 0 0 0-.855.844.856.856 0 0 0 .855.855z" transform="translate(89.21 480.509)" style="fill:#444"/>
    </g>
</svg>
