<svg xmlns="http://www.w3.org/2000/svg" width="15" height="15" viewBox="0 0 15 15">
    <g data-name="그룹 25792">
        <path data-name="타원 493" d="M7.5 1.875A5.625 5.625 0 1 0 13.125 7.5 5.631 5.631 0 0 0 7.5 1.875M7.5 0A7.5 7.5 0 1 1 0 7.5 7.5 7.5 0 0 1 7.5 0z" style="fill:#ff9d47"/>
    </g>
    <g data-name="그룹 25793">
        <path data-name="패스 26003" d="M21.59 45.381a.431.431 0 0 1-.3-.736 2.884 2.884 0 0 1 4.043-.035.431.431 0 0 1-.6.62 2.022 2.022 0 0 0-2.834.025.43.43 0 0 1-.3.126" transform="translate(-15.761 -35.446)" style="fill:#ff9d47"/>
        <path data-name="패스 26004" d="M16.6 24.288a.431.431 0 0 1-.232-.795l.614-.391-.614-.391a.431.431 0 0 1 .463-.727l1.185.754a.431.431 0 0 1 0 .727l-1.186.754a.428.428 0 0 1-.231.067" transform="translate(-11.486 -16.708)" style="fill:#ff9d47"/>
        <path data-name="패스 26005" d="M42.782 24.288a.428.428 0 0 1-.231-.067l-1.186-.754a.431.431 0 0 1 0-.727l1.185-.754a.431.431 0 0 1 .463.727l-.613.387.614.391a.431.431 0 0 1-.232.795" transform="translate(-32.893 -16.708)" style="fill:#ff9d47"/>
    </g>
</svg>
