<svg xmlns="http://www.w3.org/2000/svg" width="15" height="15" viewBox="0 0 15 15">
    <g data-name="그룹 25528">
        <path data-name="타원 493" d="M7.5 1.875A5.625 5.625 0 1 0 13.125 7.5 5.631 5.631 0 0 0 7.5 1.875M7.5 0A7.5 7.5 0 1 1 0 7.5 7.5 7.5 0 0 1 7.5 0z" style="fill:#f23116"/>
    </g>
    <g data-name="그룹 25532">
        <path data-name="패스 26006" d="M33.585 43.1c-.889 0-1.34-.4-1.34-1.191 0-.624 0-2.085 1.34-2.085s1.34 1.461 1.34 2.085c0 .791-.451 1.191-1.34 1.191m0-2.383c-.3 0-.447.178-.447 1.191 0 .247 0 .3.447.3s.447-.051.447-.3c0-1.013-.144-1.191-.447-1.191" transform="translate(-26.074 -32.361)" style="fill:#f23116"/>
        <path data-name="패스 26007" d="M21.859 26.193a.447.447 0 0 1-.24-.824l.636-.4-.636-.4a.447.447 0 0 1 .48-.754l1.229.782a.447.447 0 0 1 0 .754l-1.229.782a.445.445 0 0 1-.239.07" transform="translate(-16.854 -18.673)" style="fill:#f23116"/>
        <path data-name="패스 26008" d="M48.086 26.193a.445.445 0 0 1-.239-.07l-1.229-.782a.447.447 0 0 1 0-.754l1.229-.782a.447.447 0 0 1 .48.754l-.636.4.636.4a.447.447 0 0 1-.24.824" transform="translate(-38.13 -18.673)" style="fill:#f23116"/>
    </g>
</svg>
