<svg xmlns="http://www.w3.org/2000/svg" width="23.676" height="37.16" viewBox="0 0 23.676 37.16">
    <defs>
        <clipPath id="7wktjp9uja">
            <path data-name="사각형 12956" style="fill:none" d="M0 0h23.676v37.16H0z"/>
        </clipPath>
        <clipPath id="auwbv1m58b">
            <path data-name="사각형 12954" style="fill:none" d="M0 0h15.908v1.852H0z"/>
        </clipPath>
    </defs>
    <g data-name="그룹 25772" style="clip-path:url(#7wktjp9uja)">
        <g data-name="그룹 25771">
            <g data-name="그룹 25770" style="clip-path:url(#7wktjp9uja)">
                <path data-name="패스 26106" d="M22.145 6.024A11.833 11.833 0 0 0 0 11.838a10.539 10.539 0 0 0 .093 1.377 11.66 11.66 0 0 0 1.45 4.446c.653 1.321 1.434 2.594 2.213 3.847a84.36 84.36 0 0 0 6.761 9.074c.068.082.5.563.852.973a.617.617 0 0 0 .937 0c.352-.41.784-.891.852-.973a84.347 84.347 0 0 0 6.761-9.074 44.965 44.965 0 0 0 2.248-3.921 11.624 11.624 0 0 0 1.508-5.75 11.77 11.77 0 0 0-1.531-5.814m-4.233 9.45-.018.036a6.176 6.176 0 0 1-.593.832l-.036.042a7.073 7.073 0 0 1-10.853.006 6.533 6.533 0 0 1-.671-.94 7.085 7.085 0 1 1 13.183-3.612 6.955 6.955 0 0 1-1.012 3.636" style="fill:#126ccd"/>
                <path data-name="패스 26107" d="M142.142 6.024A11.8 11.8 0 0 0 131.835 0v4.752a7.093 7.093 0 0 1 7.086 7.086 6.955 6.955 0 0 1-1.012 3.636l-.018.036a6.172 6.172 0 0 1-.593.833l-.036.042a7.06 7.06 0 0 1-5.426 2.54v12.846a.615.615 0 0 0 .469-.215l.066-.076.16-.184.1-.112.168-.191.144-.164.106-.121.11-.127a84.359 84.359 0 0 0 6.761-9.074 45.014 45.014 0 0 0 2.248-3.921 11.624 11.624 0 0 0 1.508-5.75 11.77 11.77 0 0 0-1.531-5.814" transform="translate(-119.997)" style="fill:#034e91"/>
                <g data-name="그룹 25769" style="opacity:.3;mix-blend-mode:multiply;isolation:isolate">
                    <g data-name="그룹 25768">
                        <g data-name="그룹 25767" style="clip-path:url(#auwbv1m58b)" transform="translate(3.884 35.307)">
                            <path data-name="패스 26108" d="M59.164 394.129c0-.512-3.561-.926-7.954-.926s-7.954.415-7.954.926 3.561.926 7.954.926 7.954-.415 7.954-.926" transform="translate(-43.256 -393.203)" style="fill:#9b9b9b"/>
                        </g>
                    </g>
                </g>
            </g>
        </g>
    </g>
</svg>
