<svg xmlns="http://www.w3.org/2000/svg" width="14.738" height="14.738" viewBox="0 0 14.738 14.738">
    <path data-name="타원 507" d="M7.369 1.842A5.527 5.527 0 1 0 12.9 7.369a5.533 5.533 0 0 0-5.531-5.527m0-1.842A7.369 7.369 0 1 1 0 7.369 7.369 7.369 0 0 1 7.369 0z" style="fill:#2ea0ff"/>
    <g data-name="그룹 25794">
        <path data-name="패스 26009" d="M23.383 47.447A2.99 2.99 0 0 1 21.3 46.6a.449.449 0 0 1 .624-.646 2.107 2.107 0 0 0 2.953-.026.449.449 0 0 1 .635.635 2.985 2.985 0 0 1-2.125.88" transform="translate(-15.985 -37.309)" style="fill:#2ea0ff"/>
        <path data-name="패스 26010" d="M21.2 26.6a.6.6 0 1 1-.6-.6.6.6 0 0 1 .6.6" transform="translate(-15 -20.473)" style="fill:#2ea0ff"/>
        <path data-name="패스 26011" d="M45.2 26.6a.6.6 0 1 1-.6-.6.6.6 0 0 1 .6.6" transform="translate(-35.407 -20.473)" style="fill:#2ea0ff"/>
    </g>
</svg>
