<svg xmlns="http://www.w3.org/2000/svg" width="15" height="15" viewBox="0 0 15 15">
    <path data-name="타원 495 - 윤곽선" d="M7.5 1.875A5.625 5.625 0 1 0 13.125 7.5 5.631 5.631 0 0 0 7.5 1.875M7.5 0A7.5 7.5 0 1 1 0 7.5 7.5 7.5 0 0 1 7.5 0z" style="fill:#01c63a"/>
    <g data-name="그룹 25787">
        <path data-name="패스 26000" d="M21.2 26.627a.627.627 0 1 1-.625-.627.627.627 0 0 1 .627.627" transform="translate(-14.957 -20.265)" style="fill:#01c63a"/>
        <path data-name="패스 26001" d="M45.2 26.627a.627.627 0 1 1-.625-.627.627.627 0 0 1 .627.627" transform="translate(-35.194 -20.265)" style="fill:#01c63a"/>
        <path data-name="패스 26002" d="M25.234 46.639H21.47a.47.47 0 1 1 0-.941h3.763a.47.47 0 1 1 0 .941" transform="translate(-15.844 -36.875)" style="fill:#01c63a"/>
    </g>
</svg>
