<svg xmlns="http://www.w3.org/2000/svg" width="55.201" height="19.161" viewBox="0 0 55.201 19.161">
    <defs>
        <clipPath id="aooo66b5da">
            <path data-name="사각형 12955" style="fill:#00de5a" d="M0 0h55.201v19.161H0z"/>
        </clipPath>
    </defs>
    <g data-name="그룹 25776" style="clip-path:url(#aooo66b5da)">
        <path data-name="패스 26109" d="M91.114 15.354a4.576 4.576 0 0 0-3.129 1.246v-1.04h-1.942v12.16h1.942v-3.945a4.575 4.575 0 0 0 3.129 1.247 4.836 4.836 0 0 0 0-9.668m-.273 7.913a2.974 2.974 0 0 1-2.856-3.08 2.864 2.864 0 1 1 5.713 0 2.975 2.975 0 0 1-2.856 3.08" transform="translate(-62.789 -11.204)" style="fill:#00de5a"/>
        <path data-name="패스 26110" d="M133.153 15.561v.866a4.569 4.569 0 0 0-2.937-1.073 4.836 4.836 0 0 0 0 9.668 4.569 4.569 0 0 0 2.937-1.073v.892h2.083v-9.28zm-2.664 7.706a2.974 2.974 0 0 1-2.856-3.08 2.864 2.864 0 1 1 5.713 0 2.974 2.974 0 0 1-2.856 3.08" transform="translate(-91.608 -11.204)" style="fill:#00de5a"/>
        <path data-name="패스 26111" d="m174.868 16.12-2.636 5.849-2.958-5.849h-2.232l4.089 8.291-1.753 3.89h2.232l5.49-12.181z" transform="translate(-121.898 -11.764)" style="fill:#00de5a"/>
        <path data-name="패스 26112" d="M9.58 0a9.581 9.581 0 1 0 9.581 9.58A9.58 9.58 0 0 0 9.58 0m4.463 14.085H11.3L7.944 9.226v4.859H5.118v-9.01H7.83l3.386 4.861V5.075h2.827z" style="fill:#00de5a"/>
    </g>
</svg>
