<svg xmlns="http://www.w3.org/2000/svg" width="243.517" height="331.815" viewBox="0 0 243.517 331.815">
    <defs>
        <clipPath id="1ujf2i3wqa">
            <path data-name="사각형 12721" style="fill:#e7eaf3" d="M0 0h243.517v331.815H0z"/>
        </clipPath>
    </defs>
    <g data-name="그룹 25365" style="clip-path:url(#1ujf2i3wqa)">
        <path data-name="패스 25953" d="M283.425 438.774c-3.245 1.988-.463 1.491-1.622 3.976s-4.171-1.739-4.171-1.739c-.987-1.177-3.431-.833-2.55 1.988s-.695 5.466 1.159 5.715 1.159 2.733 1.391 5.964 2.086 3.23 3.94 3.23.695-3.23 4.4-6.461 4.635-4.97 3.939-10.294-3.245-4.367-6.489-2.379" transform="translate(-130.62 -191.168)" style="fill:#fff;stroke:#f5f5f5;stroke-width:.5px"/>
        <path data-name="패스 25954" d="M254.456 354.312c-3.91-.936-3.205 2.07-7.551-.913-5.678-3.9-20.441-2.435-21.8-2.46s.908-14.83-5.9-13.125-12.26-5.114-12.26-5.114c-2.73 5.6-8.408.974-11.815 9.254s-2.725 16.073-2.044 18.264a4.149 4.149 0 0 1-.723 2.895 23.553 23.553 0 0 1-2.911 3.924c-2.353 3 2.5 11.933 4.088 15.1 1.09 2.171 4 7.776 5.714 11.085a2.663 2.663 0 0 0 .944 1 3.648 3.648 0 0 0 .321.188c.343.174.526.728.364 1.766a6.39 6.39 0 0 0 6.662 7.468c4.542 0 4.24-.325 6.965-3.572l.108-.132a2.64 2.64 0 0 0 .556-1.653c.009.006.015.015.024.02a2.473 2.473 0 0 0-.559-1.842c-.042-.1-.092-.19-.129-.289-.271-.726.245-.672.654-.1a2.6 2.6 0 0 0 3.76.655 16.732 16.732 0 0 0 1.339-1.2c.26-.257.514-.491.763-.7 3.523-3.019 5.919-1.787 6.2-.27.3 1.623-2.12 5.52 0 6.169s2.12 4.221 2.725 5.195 2.12-4.221 2.423-8.442 2.725-6.169 6.057-7.419 5.451-1.348 10.6-1.348h.417a65.9 65.9 0 0 1 12.907 1.3c2.388.4 5.5-1.71 8.572-4.758a69.191 69.191 0 0 0 9.338-12.055c-5.007-4.792-13.861-12.835-20.635-16.631a21.194 21.194 0 0 0-5.167-2.253" transform="translate(-91.205 -156.236)" style="fill:#fff;stroke:#f5f5f5;stroke-width:.5px"/>
        <path data-name="패스 25955" d="M316.634 259.562c-1.514-4.221-3.937 7.143-8.176 8.118-3.211.738-3.121-2.627-2.231-11.212.285-2.751.652-6.033 1.019-9.894 1.514-15.91 4.24-19.157 4.24-31.5 0-7.538-1.358-12.657-3.449-19.864a44.657 44.657 0 0 0-8.891.95c-8.858 1.7-6.132.974-14.535.974s-4.542 3.165-4.542 3.165-6.492-.6-9.586-2.509a5.009 5.009 0 0 1-.862-.656s-6.132 5.844-7.949 9.984a8.343 8.343 0 0 1-8.815 4.627c-1.983-.418-11.27 5.814-13.885 7.6l-.693.478s-5-3.364-6.587 0-.942 7.52-1.623 12.018-4.581 9.211-2.31 11.646 13.093 6.727 9.687 8.412-3.482-3.872-4.845 2.215c-1.331 5.947-2.5 6.85-6.309 9.146.719.781.826 2.5-.5 5.222 0 0 5.446 6.818 12.259 5.114s4.542 13.1 5.905 13.125 16.126-1.436 21.8 2.46c4.338 2.977 3.644-.012 7.529.908a21.08 21.08 0 0 1 5.19 2.258c6.774 3.8 15.478 11.636 20.485 16.428.447-.731.938-1.3 1.266-1.906a83.219 83.219 0 0 1 4.97-7.027l2.957-3.274c2.725-3.572.606-5.845 3.028-13.962s6.965-18.833 5.451-23.054" transform="translate(-110.245 -91.359)" style="fill:#fff;stroke:#f5f5f5;stroke-width:.5px"/>
        <path data-name="패스 25956" d="M151.891 496.121c-.461.6-.056.448 0 0" transform="translate(-72.07 -216.933)" style="fill:#e7eaf3"/>
        <path data-name="패스 25957" d="M37.608 500.979c1.854 2.485 3.708-8.2 3.477-9.691a1.964 1.964 0 0 0-.455-.8 5.623 5.623 0 0 0-8.43-.345q-.32.315-.7.648c-4.551 3.976-8.723 4.97-6.174 7.7s10.429 0 12.283 2.485" transform="translate(-11.665 -213.561)" style="fill:#fff;stroke:#f5f5f5;stroke-width:.5px"/>
        <path data-name="패스 25958" d="M86.641 508.98s-4.4 1.334-3.013 2.158 4.172.915 4.635 0-1.622-2.158-1.622-2.158" transform="translate(-39.608 -222.556)" style="fill:#e7eaf3"/>
        <path data-name="패스 25959" d="M122.868 421.35a6.022 6.022 0 0 0-.153-5.2 1259.83 1259.83 0 0 1-4.6-8.932c-1.59-3.165-6.441-12.093-4.088-15.1 0 0-9.766.73-10.9 2.679s-5-1.948-7.5-1.461-3.633 2.922-7.041-1.948-3.861-8.523-4.769-5.6a21.95 21.95 0 0 0-.348 1.257c-.585 2.337-.727 3.95-1.7 1.666-1.136-2.679.227-5.114-4.088-1.461a51.783 51.783 0 0 1-5.206 3.967 13.7 13.7 0 0 1-4.721 2.121c-2.564.487-6.425 1.7-7.561-.73-.632-1.357-3.308-4-5.555-6.07-.284 2.816-.111 6.036-2.168 8.424l-.4.464c-3.292 3.807-3.968 4.517.4 7.329 4.542 2.922 1.514 3.247.908 7.143s-5.753-3.572-9.388-3.247-2.119 4.546 1.514 2.922 5.451 1.3 4.542 3.572-5.148 3.247-6.359 6.819 2.726 3.572 2.12 6.493 1.515 8.767 1.515 8.767-2.423-2.6-6.359-7.793.908 4.546 1.817 9.092 4.239 1.624 7.267 4.221a10.908 10.908 0 0 1 2.813 3.675 13.213 13.213 0 0 1 .821 8.014c-.908 5.2 3.331 4.546 7.874 0s4.24-2.6 6.662-8.118 3.028-1.624 3.028 2.958 2.725 2.886 8.176 0c4.828-2.557 2.77-2.144 4.55-5.626.23-.449.52-.959.9-1.553 3.331-5.2 4.24-4.546 9.388-8.118s2.423-3.572 5.148-.325-1.211 2.6-3.937 5.52-4.24.974-7.571 6.819 2.12-.325 7.571.974c2.451.584 2.819 1.43 2.758 1.919a9.072 9.072 0 0 1 .876-.945c3.028-2.922 3.331 1.948 6.965 0s-1.211-3.9-1.832-5.52 6.071-.649 5.163-3.572-5.451-2.922-5.148-8.442c.123-2.238.345-3.034.748-3.3.59-.388 1.568.368 3.189-.6 2.725-1.623.3-3.571 4.508-1.948s.337.974.034 8.442 1.514 3.572 1.514 5.52 2.12 5.845 4.845 6.494-2.423-3.9-2.423-9.416 2.12-3.247 3.937-.649 0 4.221 0 4.221 2.422 1.948 3.937 0-1.515-8.442-2.12-12.663a5.723 5.723 0 0 1 .434-3.154" transform="translate(-15.747 -181.237)" style="fill:#fff;stroke:#f5f5f5;stroke-width:.5px"/>
        <path data-name="패스 25960" d="M133.6 324.458c3.407-8.28 9.085-3.653 11.815-9.254s-.913-6.576-7.045-5.6-5.451.73-8.858-1.461a7.938 7.938 0 0 0-3.577-1.342c-1.39-.147-2.5.113-3.691-.241-2.044-.609-3.407-7.184-7.5-5.043s-4.315 2.486-7.268-.193a24.146 24.146 0 0 0-6.017-4.371c-4.7-2.027-5.517 2.878-11.017 6.563-3.431 2.3-5.95 2.97-7.655 3.037.39.374.365.515-.37.372-3.331-.649-7.268 1.948 0 5.845s3.633 4.871.3 4.871c-1.933 0-1.116 1.533-1.922 3.707-.583 1.572-2.012 3.477-5.951 5.385-9.388 4.546-4.845 3.572 1.817 6.712s-.908 2.7-5.451 5.3c-1.972 1.128-2.46 3.052-2.678 5.213 2.247 2.073 4.922 4.713 5.555 6.07a2.394 2.394 0 0 0 1.686 1.33c1.685.428 4.092-.261 5.874-.6 2.564-.487 5.613-2.436 9.928-6.088s2.707-1.336 3.843 1.342 1.136 0 2.044-2.922 1.608.85 5.015 5.72 4.542 2.435 7.041 1.948a3.877 3.877 0 0 1 1.977.266c2.217.781 4.655 2.676 5.518 1.195 1.135-1.948 10.9-2.679 10.9-2.679s4.315-4.627 3.634-6.819a25.891 25.891 0 0 1-.266-9.526 34.842 34.842 0 0 1 2.31-8.738" transform="translate(-29.598 -138.638)" style="fill:#fff;stroke:#f5f5f5;stroke-width:.5px"/>
        <path data-name="패스 25961" d="M68.236 246.511c1.85 2.236 2.554.746 2.554-1.033a43.172 43.172 0 0 0-1.159-6.421l-1.4-2.734c-1.4-2.733-2.776.994-3.24 4.225s1.39 3.728 3.24 5.964" transform="translate(-30.85 -102.92)" style="fill:#e7eaf3"/>
        <path data-name="패스 25962" d="M432.1 261.74c-2.231 1.216-1.546 2.392-.38 2.932a20.934 20.934 0 0 0 4.687.765l2.369-.6c2.369-.6.5-3.149-1.427-4.607s-3.017.293-5.248 1.509" transform="translate(-204.623 -113.547)" style="fill:#fff;stroke:#f5f5f5;stroke-width:.5px"/>
        <path data-name="패스 25963" d="M460.764 263.782c.183 1.046.606 1.178.874.976a4.347 4.347 0 0 0 .642-1.227l.02-.908c.019-.908-.931-1.076-1.548-.907s-.171 1.02.012 2.066" transform="translate(-218.784 -114.412)" style="stroke-linecap:round;stroke-linejoin:round;fill:#fff;stroke:#f5f5f5;stroke-width:.5px"/>
        <path data-name="패스 25964" d="M64.181 211.119c5.148 3.247 3.028 2.922 4.24 11.407s2.725 3.53 1.817 7.751a70.805 70.805 0 0 0-.567 2.925c-.425 2.466-.66 4.545-1.552 9.089-.944 4.808 5.653 9.024 7.033 10.343 1.7-.068 4.223-.738 7.654-3.038 6.712-4.5 6.455-10.809 14.786-4.119a48.59 48.59 0 0 1 2.248 1.927c2.953 2.679 3.18 2.333 7.268.193s5.451 4.434 7.5 5.043 3.837-.377 7.244 1.815c3.126 2.012 2.781 2.423 7.449 1.716.053-3.587-2.211-5.5-2.429-8.767-.227-3.409-.908-4.383-3.407-6.819s-2.271-7.062-3.812-8.523-1.639-3.9-2.269-9.018a10.21 10.21 0 0 0-.151-.9c-.891-4.061-3.891-3.012-5.806-6.89-2.044-4.14 4.316-9.254 5.678-10.228s-2.725-8.523-2.725-8.523a7.968 7.968 0 0 0-2.953-3.409c-2.989-1.781-6.186-.859-9.968.216a39.532 39.532 0 0 1-6.839 1.488c-3.111.323-5.778-1.446-7.786-3.522a25.387 25.387 0 0 0-6.442-4.893c-.4-.209-.8-.409-1.214-.592-1.541-.686-3.014-1.376-4.09-1.953-3.634-1.948-13.022 0-13.022 1.3 0 1.05 1.186 5.914 1.162 9.285a7.446 7.446 0 0 1-.253 2.08c-.908 2.922-4.845-10.39-6.057-9.416s-3.028 6.819-1.817 15.586 3.937 5.2 9.085 8.442" transform="translate(-21.99 -85.027)" style="fill:#fff;stroke:#f5f5f5;stroke-width:.5px"/>
        <path data-name="패스 25965" d="M202.336 206.562a2.7 2.7 0 0 1 3.262-1.411 10.354 10.354 0 0 1 3.324 1.411s8.318-5.81 12.545-7.587a4.221 4.221 0 0 1 2.033-.494 8.343 8.343 0 0 0 8.815-4.627c1.817-4.14 7.949-9.985 7.949-9.985-2.5-2.435-7.722-3.9-11.583-6.575s-15.218-5.6-17.943-6.331a3.719 3.719 0 0 0-1.673.022c-2.914.589-7.105 3.43-9.911 3.631-1.779.127-2.283-.465-2.684-1.27 0 0-6.477 6.741-11.019 5.767-1.922-.413-2.816-.537-3.261 0-.607.732-1.131 2.639-3.227 4.325a33.186 33.186 0 0 0-6.076 6.591s4.237 7.965 2.875 8.939-7.722 6.088-5.678 10.228l.022.042c2.046 4.087 5.307 2.64 5.934 7.744.631 5.121.727 7.556 2.269 9.018s1.314 6.088 3.813 8.523 3.179 3.409 3.407 6.819a7.109 7.109 0 0 0 .094.751c.483 2.786 2.393 3.681 2.344 6.982.418-.063 2.608-.1 3.112-.18 3.154-.5 4.582 0 5.891.891 5.106-2.756 4.943-2.983 6.274-8.931 1.362-6.088 1-.586 4.408-2.271s-6.452-5.522-8.723-7.957 1.59-7.549 2.271-12.047c.575-3.791-.136-7.339.577-10.375a8.224 8.224 0 0 1 .558-1.642" transform="translate(-80.628 -77.999)" style="fill:#fff;stroke:#f5f5f5;stroke-width:.5px"/>
        <path data-name="패스 25966" d="M176.159 25.083a75.76 75.76 0 0 0 8.716 11.4c2.193 2.518 3.775 4.418 3.775 5.647v14.124c0 5.114 6.359 9.254 10.221 11.689a4.064 4.064 0 0 1 .743.586c2.2 2.241-2.805 4.5-3.014 6.963-.227 2.679-4.088 10.208-2.044 14.724.976 2.156 1.228 3.448 1.594 4.185.4.8.941.944 2.721.817 3.407-.244 8.858-4.383 11.583-3.653a128.716 128.716 0 0 1 14.4 4.523A20.025 20.025 0 0 1 228.4 97.9c3.861 2.679 8.875 4.659 11.374 7.094s9.994 2.986 9.994 2.986-2.541-2.475 1.638-3.237a20.142 20.142 0 0 1 3.568-.267c8.4 0 5.678.73 14.536-.974a37.806 37.806 0 0 1 8.262-.869c-1.332-4.59-2.331-10.1-4.1-17.558a61.976 61.976 0 0 0-6.243-15.814c-5.483-9.881-12-16.341-12.835-19.9-.918-3.937-3.228-8.807-5.743-13.621a337.51 337.51 0 0 0-2.434-4.563c-3.331-6.169-2.12-14.287-5.148-18.508S236.724 0 236.724 0a15.248 15.248 0 0 0-4.542 6.494 17.725 17.725 0 0 1-9.273 9.4 10.744 10.744 0 0 1-2.538.666c-3.661.462-11.609-.062-15.9-.4-1.74-.138-2.879-.246-2.879-.246s-20.29-2.6-27.557-2.6c-4.471 0-6.077 1.475-7.708 3.214a22.514 22.514 0 0 1 9.828 8.556" transform="translate(-80.035 1)" style="fill:#fff;stroke:#f5f5f5;stroke-width:.5px"/>
        <path data-name="패스 25967" d="M26.274 551.216c-.6.049-1.215.114-1.858.213a55.692 55.692 0 0 0-12.686 3.662s-1.952-.523-5.855 1.831S.264 561.108.02 567.123c-.014.35-.02.661-.02.943 0 4.578 1.827.794 3.436 3.5 1.708 2.877 1.708 0 5.611-1.308s6.587 1.047 10.734 0a65.347 65.347 0 0 0 8.529-2.878 52.6 52.6 0 0 0 2.936-1.307c2.683-1.308 7.319-8.109 5.851-10.986-1.329-2.606-5.058-4.346-10.823-3.875" transform="translate(1 -241.99)" style="fill:#fff;stroke:#f5f5f5;stroke-width:.5px"/>
        <path data-name="패스 25968" d="M71.866 88.843c-.809 2.236 1.972 3.728 5.448 3.728s5.331 1.491 4.867-2.982.866-7.694-.433-10.289l-.011-.023c-1.318-2.6-6.741-8.076-7.9-5.343 0 0-5.562.5-3.477 5.715s2.313 6.958 1.5 9.195" transform="translate(-33.211 -32.002)" style="fill:#fff;stroke:#f5f5f5;stroke-width:.5px"/>
        <path data-name="패스 25969" d="M94.826 80.939c0-.007-.006-.014-.009-.021l.01.023" transform="translate(-45.053 -35.381)" style="fill:#e7eaf3"/>
        <path data-name="패스 25970" d="M93.415 59.334c0 .007.006.014.009.02 1.186 2.643 4.062 9.731 2.847 13.9-1.514 5.2-.3 3.9-.3 9.092a7.911 7.911 0 0 1-1.594 4.9 1.571 1.571 0 0 0 .981 2.546l.31.026c3.937.325 5.148 6.169 5.148 6.169s-5.451 1.948-5.451 5.519 3.937 4.546 10.6 2.872c1.8-.453 2.624-.44 2.812-.12.506.862-3.631 3.972-5.84 6.34-3.028 3.247 1.817 7.143 1.817 7.143a.837.837 0 0 0-.855 1.373c2.074 2.418 5.038 4.759 8.577 4.391 7.041-.73 12.172-4.466 16.807-1.7a7.973 7.973 0 0 1 2.952 3.409 37.771 37.771 0 0 1 6.359-6.819c3.634-2.922 1.363-5.114 5.905-4.14s11.134-5.688 11.134-5.688c-.367-.736-.173-1.725-1.15-3.882-2.044-4.515 1.626-11.911 1.854-14.589s6.333-5.22 2.472-7.655a53.818 53.818 0 0 1-6.3-4.52c-2.409-2.115-4.376-4.657-4.376-7.5V56.29c0-.947-.938-2.29-2.369-4.005-2.618-3.14-6.892-7.53-10.123-13.042a20.863 20.863 0 0 0-9.284-8.355 19.14 19.14 0 0 1-4.344 3.079c-4.542 2.6-9.085 8.118-12.719 11.365s-9.388 7.793-12.113 9.741a3.6 3.6 0 0 1-2.7.568 9.5 9.5 0 0 1-3.958-1.867l2.423 4.546s.187.376.474 1.015" transform="translate(-40.011 -13.418)" style="fill:#fff;stroke:#f5f5f5;stroke-width:.5px"/>
    </g>
</svg>
