<svg xmlns="http://www.w3.org/2000/svg" width="81" height="81" viewBox="0 0 81 81">
    <defs>
        <clipPath id="xbl6q3zoda">
            <path data-name="사각형 12780" transform="translate(40 1)" style="stroke:#01c63a;fill:#01c63a" d="M0 0h41v81H0z"/>
        </clipPath>
    </defs>
    <g data-name="그룹 25540">
        <g data-name="그룹 25523">
            <g data-name="타원 493" style="stroke-width:10px;stroke:#d7f7e0;fill:none">
                <circle cx="40" cy="40" r="40" style="stroke:none"/>
                <circle cx="40" cy="40" r="35" style="fill:none"/>
            </g>
            <g data-name="마스크 그룹 6" transform="translate(0 -1)" style="clip-path:url(#xbl6q3zoda)">
                <g data-name="타원 495" transform="translate(0 1)" style="fill:#fff;stroke-width:10px;stroke:#01c63a">
                    <circle cx="40" cy="40" r="40" style="stroke:none"/>
                    <circle cx="40" cy="40" r="35" style="fill:none"/>
                </g>
            </g>
        </g>
        <g data-name="그룹 25534">
            <path data-name="패스 26000" d="M25.426 28.739A2.739 2.739 0 1 1 22.687 26a2.739 2.739 0 0 1 2.739 2.739" transform="translate(10.052 5)" style="fill:#01c63a"/>
            <path data-name="패스 26001" d="M49.426 28.739A2.739 2.739 0 1 1 46.687 26a2.739 2.739 0 0 1 2.739 2.739" transform="translate(2.485 5)" style="fill:#01c63a"/>
            <path data-name="패스 26002" d="M39.487 49.806H23.054a2.054 2.054 0 1 1 0-4.108h16.433a2.054 2.054 0 1 1 0 4.108" transform="translate(9.72 -1.21)" style="fill:#01c63a"/>
        </g>
    </g>
</svg>
