<svg xmlns="http://www.w3.org/2000/svg" width="18" height="18" viewBox="0 0 18 18">
    <defs>
        <clipPath id="sy2cq4tela">
            <path data-name="사각형 12724" style="fill:#01c63a" d="M0 0h18v18H0z"/>
        </clipPath>
    </defs>
    <g data-name="그룹 25499">
        <circle data-name="타원 487" cx="9" cy="9" r="9" style="opacity:.1;fill:#01c63a"/>
        <g data-name="그룹 25398">
            <g data-name="그룹 25397" style="clip-path:url(#sy2cq4tela)">
                <path data-name="패스 25976" d="M9 18a9 9 0 1 1 9-9 9.01 9.01 0 0 1-9 9M9 1.5A7.5 7.5 0 1 0 16.5 9 7.509 7.509 0 0 0 9 1.5" style="fill:#01c63a"/>
                <path data-name="패스 25977" d="M21.948 27a1 1 0 1 1-1-1 1 1 0 0 1 1 1" transform="translate(-14.961 -19.5)" style="fill:#01c63a"/>
                <path data-name="패스 25978" d="M45.948 27a1 1 0 1 1-1-1 1 1 0 0 1 1 1" transform="translate(-32.961 -19.5)" style="fill:#01c63a"/>
                <path data-name="패스 25979" d="M27.75 47.2h-6a.75.75 0 1 1 0-1.5h6a.75.75 0 1 1 0 1.5" transform="translate(-15.75 -34.274)" style="fill:#01c63a"/>
            </g>
        </g>
    </g>
</svg>
