<svg xmlns="http://www.w3.org/2000/svg" width="15.761" height="14.464" viewBox="0 0 15.761 14.464">
    <g data-name="그룹 25380">
        <path data-name="패스 14926" d="M771.91 337.609a4.252 4.252 0 0 1-3.349-3.478 4.5 4.5 0 0 1-.043-1.073.522.522 0 0 0-.859-.429 4.278 4.278 0 0 0-1.417 3.821 4.372 4.372 0 0 0 3.735 3.692 4.322 4.322 0 0 0 3.993-1.674.52.52 0 0 0-.515-.816 4.449 4.449 0 0 1-1.5-.043z" transform="translate(-758.565 -332.239)" style="fill:#f0f0f0;stroke:#777;stroke-linejoin:round;stroke-width:.5px"/>
        <path data-name="패스 14984" d="M759.691 344.478a4.072 4.072 0 0 0-4.036-3.478 4.222 4.222 0 0 0-4.079 4.079c0 2.233 0 .429.043.644a2.714 2.714 0 0 0-2.619 2.748v.086a2.767 2.767 0 0 0 2.748 2.748h7.552a3.445 3.445 0 0 0 3.435-3.435 3.312 3.312 0 0 0-3.044-3.392z" transform="translate(-748.75 -337.09)" style="fill:#f0f0f0;stroke:#777;stroke-linejoin:round;stroke-width:.5px"/>
    </g>
</svg>
