<svg xmlns="http://www.w3.org/2000/svg" width="16.987" height="14.425" viewBox="0 0 16.987 14.425">
    <g data-name="그룹 25375">
        <g data-name="그룹 25377">
            <path data-name="선 179" transform="translate(.25 7.213)" style="fill:none;stroke:#777;stroke-linecap:round;stroke-linejoin:round;stroke-width:.5px" d="M16.487 0H0"/>
            <path data-name="선 180" transform="translate(4.372 .343)" style="fill:none;stroke:#777;stroke-linecap:round;stroke-linejoin:round;stroke-width:.5px" d="M0 13.739 8.243 0"/>
            <path data-name="선 181" transform="translate(4.372 .343)" style="fill:none;stroke:#777;stroke-linecap:round;stroke-linejoin:round;stroke-width:.5px" d="m0 0 8.243 13.739"/>
            <path data-name="선 182" transform="translate(12.873 7.213)" style="fill:none;stroke:#777;stroke-linecap:round;stroke-linejoin:round;stroke-width:.5px" d="M2.061 2.318 0 0"/>
            <path data-name="선 183" transform="translate(12.873 4.894)" style="fill:none;stroke:#777;stroke-linecap:round;stroke-linejoin:round;stroke-width:.5px" d="M2.061 0 0 2.318"/>
            <path data-name="선 184" transform="translate(9.61 10.862)" style="fill:none;stroke:#777;stroke-linecap:round;stroke-linejoin:round;stroke-width:.5px" d="M0 2.877 1.073 0"/>
            <path data-name="선 185" transform="translate(10.683 10.862)" style="fill:none;stroke:#777;stroke-linecap:round;stroke-linejoin:round;stroke-width:.5px" d="M3.134.558 0 0"/>
            <path data-name="선 186" transform="translate(3.17 10.862)" style="fill:none;stroke:#777;stroke-linecap:round;stroke-linejoin:round;stroke-width:.5px" d="M0 .558 3.134 0"/>
            <path data-name="선 187" transform="translate(6.304 10.862)" style="fill:none;stroke:#777;stroke-linecap:round;stroke-linejoin:round;stroke-width:.5px" d="M1.073 2.877 0 0"/>
            <path data-name="선 188" transform="translate(2.053 4.894)" style="fill:none;stroke:#777;stroke-linecap:round;stroke-linejoin:round;stroke-width:.5px" d="m0 0 2.061 2.318"/>
            <path data-name="선 189" transform="translate(2.053 7.213)" style="fill:none;stroke:#777;stroke-linecap:round;stroke-linejoin:round;stroke-width:.5px" d="M0 2.318 2.061 0"/>
            <path data-name="선 190" transform="translate(6.304 .686)" style="fill:none;stroke:#777;stroke-linecap:round;stroke-linejoin:round;stroke-width:.5px" d="M1.073 0 0 2.877"/>
            <path data-name="선 191" transform="translate(3.17 3.005)" style="fill:none;stroke:#777;stroke-linecap:round;stroke-linejoin:round;stroke-width:.5px" d="m0 0 3.134.558"/>
            <path data-name="선 192" transform="translate(10.683 3.005)" style="fill:none;stroke:#777;stroke-linecap:round;stroke-linejoin:round;stroke-width:.5px" d="M3.134 0 0 .558"/>
            <path data-name="선 193" transform="translate(9.61 .686)" style="fill:none;stroke:#777;stroke-linecap:round;stroke-linejoin:round;stroke-width:.5px" d="m0 0 1.073 2.877"/>
        </g>
    </g>
</svg>
