<svg xmlns="http://www.w3.org/2000/svg" width="16.05" height="14.338" viewBox="0 0 16.05 14.338">
    <g data-name="그룹 25385">
        <g data-name="그룹 25380">
            <path data-name="패스 14994" d="m458.157 769-3.048 6.226a1.62 1.62 0 0 1-2.061.945 1.628 1.628 0 0 1-.816-2.1" transform="translate(-450.566 -762.245)" style="stroke:#777;stroke-linejoin:round;stroke-width:.5px;fill:none"/>
            <path data-name="패스 14995" d="M450.86 758.012a3.391 3.391 0 0 1 2.061 2.619 3.374 3.374 0 0 1 5.367 2.19 3.381 3.381 0 0 1 3.306-.429 3.466 3.466 0 0 1 1.417 1.073 7.574 7.574 0 0 0-13.911-5.71 3.569 3.569 0 0 1 1.76.215z" transform="translate(-448.85 -753.618)" style="fill:#f0f0f0;stroke:#777;stroke-linejoin:round;stroke-width:.5px"/>
        </g>
        <path data-name="선 201" transform="translate(9.696 2.934)" style="stroke:#777;stroke-linejoin:round;stroke-width:.5px;fill:none" d="M0 0h5.367"/>
        <path data-name="선 202" transform="translate(12.057 5.21)" style="stroke:#777;stroke-linejoin:round;stroke-width:.5px;fill:none" d="M0 0h3.993"/>
    </g>
</svg>
