<svg xmlns="http://www.w3.org/2000/svg" width="14.239" height="14.239" viewBox="0 0 14.239 14.239">
    <g data-name="그룹 25389">
        <path data-name="패스 14968" d="M615.7 894v5.882a5.369 5.369 0 0 0 2.361-3.435c0-2.061-2.361-2.447-2.361-2.447z" transform="translate(-608.28 -893.75)" style="fill:none;stroke:#777;stroke-linejoin:round;stroke-width:.5px"/>
        <path data-name="패스 14969" d="M599 906.161h5.882a5.369 5.369 0 0 0-3.435-2.361c-2.061 0-2.447 2.361-2.447 2.361z" transform="translate(-598.75 -899.342)" style="fill:none;stroke:#777;stroke-linejoin:round;stroke-width:.5px"/>
        <path data-name="패스 14970" d="M611.161 918.182V912.3a5.369 5.369 0 0 0-2.361 3.435c0 2.065 2.361 2.447 2.361 2.447z" transform="translate(-604.342 -904.193)" style="fill:none;stroke:#777;stroke-linejoin:round;stroke-width:.5px"/>
        <path data-name="패스 14971" d="M623.182 910.7H617.3a5.369 5.369 0 0 0 3.435 2.361c2.065 0 2.447-2.361 2.447-2.361z" transform="translate(-609.193 -903.28)" style="fill:none;stroke:#777;stroke-linejoin:round;stroke-width:.5px"/>
    </g>
</svg>
