<svg xmlns="http://www.w3.org/2000/svg" width="14.239" height="14.151" viewBox="0 0 14.239 14.151">
    <g data-name="그룹 25376">
        <path data-name="패스 14927" d="M159.691 337.478a4.072 4.072 0 0 0-4.036-3.478 4.222 4.222 0 0 0-4.079 4.079c0 2.233 0 .429.043.644a2.714 2.714 0 0 0-2.619 2.748v.086a2.767 2.767 0 0 0 2.748 2.748h7.552a3.445 3.445 0 0 0 3.435-3.435 3.312 3.312 0 0 0-3.044-3.392z" transform="translate(-148.75 -333.75)" style="stroke:#777;stroke-linejoin:round;stroke-width:.5px;fill:#f0f0f0"/>
        <path data-name="선 194" transform="translate(.808 12.014)" style="fill:none;stroke:#777;stroke-linejoin:round;stroke-width:.5px" d="M1.674 0 0 1.975"/>
        <path data-name="선 195" transform="translate(5.102 12.014)" style="fill:none;stroke:#777;stroke-linejoin:round;stroke-width:.5px" d="M1.674 0 0 1.975"/>
        <path data-name="선 196" transform="translate(9.395 12.014)" style="fill:none;stroke:#777;stroke-linejoin:round;stroke-width:.5px" d="M1.674 0 0 1.975"/>
    </g>
</svg>
