<svg xmlns="http://www.w3.org/2000/svg" width="15.527" height="14.239" viewBox="0 0 15.527 14.239">
    <g data-name="그룹 25383">
        <g data-name="그룹 25378">
            <path data-name="패스 14990" d="M161.491 768.6v5.8a1.625 1.625 0 0 1-1.546 1.674 1.6 1.6 0 0 1-1.545-1.674" transform="translate(-153.556 -762.081)" style="stroke:#777;stroke-linejoin:round;stroke-width:.5px;fill:none"/>
            <path data-name="패스 14991" d="M149.332 760.183a3.444 3.444 0 0 1 2.92 1.631 3.39 3.39 0 0 1 2.92-1.631 3.444 3.444 0 0 1 2.92 1.631 3.39 3.39 0 0 1 2.92-1.631 2.14 2.14 0 0 1 1.717.472 7.569 7.569 0 0 0-15.027 0 3.324 3.324 0 0 1 1.717-.472z" transform="translate(-147.45 -753.75)" style="fill:#f0f0f0;stroke:#777;stroke-linejoin:round;stroke-width:.5px"/>
        </g>
    </g>
</svg>
