<svg xmlns="http://www.w3.org/2000/svg" width="15.699" height="14.239" viewBox="0 0 15.699 14.239">
    <g data-name="그룹 25384">
        <g data-name="그룹 25379">
            <path data-name="패스 14992" d="M311.491 768.6v5.8a1.625 1.625 0 0 1-1.546 1.674 1.6 1.6 0 0 1-1.545-1.674" transform="translate(-303.384 -762.081)" style="stroke:#777;stroke-linejoin:round;stroke-width:.5px;fill:none"/>
            <path data-name="패스 14993" d="M299.331 760.183a3.444 3.444 0 0 1 2.92 1.631 3.39 3.39 0 0 1 2.92-1.631 3.444 3.444 0 0 1 2.92 1.631 3.39 3.39 0 0 1 2.92-1.631 2.14 2.14 0 0 1 1.717.472 7.569 7.569 0 0 0-15.027 0 3.324 3.324 0 0 1 1.717-.472z" transform="translate(-297.278 -753.75)" style="fill:#f0f0f0;stroke:#777;stroke-linejoin:round;stroke-width:.5px"/>
        </g>
        <path data-name="선 197" transform="translate(.25 8.536)" style="stroke:#777;stroke-linejoin:round;stroke-width:.5px;fill:none" d="M0 0v1.889"/>
        <path data-name="선 198" transform="translate(3.127 9.824)" style="stroke:#777;stroke-linejoin:round;stroke-width:.5px;fill:none" d="M0 0v1.889"/>
        <path data-name="선 199" transform="translate(11.413 10.984)" style="stroke:#777;stroke-linejoin:round;stroke-width:.5px;fill:none" d="M0 0v1.846"/>
        <path data-name="선 200" transform="translate(14.848 8.536)" style="stroke:#777;stroke-linejoin:round;stroke-width:.5px;fill:none" d="M0 0v1.889"/>
    </g>
</svg>
