<svg xmlns="http://www.w3.org/2000/svg" width="14.239" height="14.239" viewBox="0 0 14.239 14.239">
    <g data-name="그룹 25377">
        <path data-name="패스 14928" d="M309.691 337.478a4.072 4.072 0 0 0-4.036-3.478 4.222 4.222 0 0 0-4.079 4.079c0 2.233 0 .429.043.644a2.714 2.714 0 0 0-2.619 2.748v.086a2.767 2.767 0 0 0 2.748 2.748h7.552a3.445 3.445 0 0 0 3.435-3.435 3.312 3.312 0 0 0-3.044-3.392z" transform="translate(-298.75 -333.75)" style="fill:#f0f0f0;stroke:#777;stroke-linejoin:round;stroke-width:.5px"/>
        <path data-name="패스 14978" d="m311.051 350-4.551 3.821h2.7l-1.674 3.048 5.41-4.465h-3.005z" transform="translate(-303.03 -342.88)" style="fill:#f0f0f0;stroke:#777;stroke-linejoin:round;stroke-width:.5px"/>
    </g>
</svg>
