<svg xmlns="http://www.w3.org/2000/svg" width="15.098" height="14.239" viewBox="0 0 15.098 14.239">
    <g data-name="그룹 25379">
        <path data-name="패스 14980" d="M609.691 344.478a4.073 4.073 0 0 0-4.036-3.478 4.222 4.222 0 0 0-4.079 4.079c0 2.233 0 .429.043.644a2.714 2.714 0 0 0-2.619 2.748v.086a2.767 2.767 0 0 0 2.748 2.748h7.552a3.445 3.445 0 0 0 3.435-3.435 3.312 3.312 0 0 0-3.044-3.392z" transform="translate(-598.75 -337.315)" style="stroke:#777;stroke-linejoin:round;stroke-width:.5px;fill:#f0f0f0"/>
        <path data-name="패스 14981" d="M612.2 336.649a4.475 4.475 0 0 1 4.422-3.649 4.713 4.713 0 0 1 4.508 4.508c0 2.49-.73 2.834-1.846 3.649" transform="translate(-606.283 -332.75)" style="fill:none;stroke:#777;stroke-linejoin:round;stroke-width:.5px"/>
        <path data-name="패스 14982" d="M616 338.432a3.038 3.038 0 0 1 2.791-1.932 3.3 3.3 0 0 1 3.005 3.005 2.515 2.515 0 0 1-1.589 2.662" transform="translate(-608.451 -334.747)" style="fill:none;stroke:#777;stroke-linejoin:round;stroke-width:.5px"/>
        <path data-name="패스 14983" d="M619.2 340.987a1.484 1.484 0 0 1 1.417-.987 1.65 1.65 0 0 1 1.5 1.5 1.463 1.463 0 0 1-1.331 1.5" transform="translate(-610.277 -336.745)" style="fill:none;stroke:#777;stroke-linejoin:round;stroke-width:.5px"/>
    </g>
</svg>
