<svg xmlns="http://www.w3.org/2000/svg" width="18.211" height="10.804" viewBox="0 0 18.211 10.804">
    <g data-name="그룹 25381">
        <path data-name="합치기 3" d="M2.218 6.44a2.361 2.361 0 0 1 .143-4.718 2.466 2.466 0 0 1 .3.019A2.362 2.362 0 1 1 7.138 3.22h.805v3.22z" transform="translate(.25 3.255)" style="fill:#f0f0f0;stroke:#777;stroke-linejoin:round;stroke-width:.5px"/>
        <path data-name="패스 14985" d="M909.691 344.478a4.073 4.073 0 0 0-4.036-3.478 4.222 4.222 0 0 0-4.079 4.079c0 2.233 0 .429.043.644a2.714 2.714 0 0 0-2.619 2.748v.086a2.767 2.767 0 0 0 2.748 2.748h7.552a3.445 3.445 0 0 0 3.435-3.435 3.312 3.312 0 0 0-3.044-3.392z" transform="translate(-894.779 -340.75)" style="fill:#f0f0f0;stroke:#777;stroke-linejoin:round;stroke-width:.5px"/>
    </g>
</svg>
