<svg xmlns="http://www.w3.org/2000/svg" width="13.943" height="14.325" viewBox="0 0 13.943 14.325">
    <g data-name="그룹 25386" transform="translate(.204 .25)">
        <path data-name="패스 14996" d="M613.1 774.8c.3-.148.6.386.6-2.447a5.152 5.152 0 0 0-10.3 0 4.683 4.683 0 0 0 .129 1.116c.086.344 1.439-.614 4.157.1s5.114 1.378 5.414 1.231z" transform="translate(-601.511 -761.103)" style="stroke:#777;stroke-linejoin:round;stroke-width:.5px;fill:#f0f0f0"/>
        <circle data-name="타원 452" cx="3.005" cy="3.005" r="3.005" transform="translate(4.036)" style="stroke:#777;stroke-linejoin:round;stroke-width:.5px;fill:#f0f0f0"/>
        <path data-name="패스 14997" d="M599 782.531s.945-1.331 4.293-1.331 2.791 1.717 9.446 1.717" transform="translate(-599 -769.092)" style="fill:none;stroke:#777;stroke-linejoin:round;stroke-width:.5px"/>
        <circle data-name="타원 453" cx=".859" cy=".859" r=".859" transform="translate(6.14 8.243)" style="fill:#777"/>
        <circle data-name="타원 454" cx=".859" cy=".859" r=".859" transform="translate(6.14 10.948)" style="fill:#777"/>
    </g>
</svg>
